<svg width="35" height="35" viewBox="0 0 35 35" fill="none" xmlns="http://www.w3.org/2000/svg">
<path d="M23.9069 15.1051L23.9069 15.1051C24.0267 15.2286 24.0938 15.3931 24.0938 15.5644C24.0938 15.7357 24.0267 15.9001 23.9069 16.0236C23.9069 16.0236 23.9069 16.0236 23.9069 16.0236L17.7379 22.3881C17.6748 22.4532 17.599 22.5049 17.5152 22.5403C17.4313 22.5756 17.3411 22.5937 17.25 22.5937C17.1589 22.5937 17.0687 22.5756 16.9848 22.5403C16.901 22.5049 16.8252 22.4532 16.7621 22.3881L10.5931 16.0236C10.4733 15.9001 10.4063 15.7357 10.4063 15.5644C10.4063 15.3931 10.4733 15.2286 10.5931 15.1051L10.5947 15.1035L10.5947 15.1035L10.6009 15.0974C10.6595 15.0371 10.7298 14.9891 10.8076 14.9562C10.8858 14.9232 10.9699 14.9062 11.0549 14.9062C11.1398 14.9062 11.224 14.9232 11.3021 14.9562C11.3803 14.9892 11.4509 15.0375 11.5096 15.0983L23.9069 15.1051ZM23.9069 15.1051L23.9053 15.1035L23.8991 15.0975C23.8405 15.0371 23.7702 14.9891 23.6924 14.9562C23.6142 14.9232 23.5301 14.9062 23.4451 14.9062C23.3602 14.9062 23.276 14.9232 23.1979 14.9562C23.1197 14.9892 23.0491 15.0375 22.9904 15.0983C22.9903 15.0983 22.9903 15.0983 22.9903 15.0984L17.2489 21.0221M23.9069 15.1051L17.2489 21.0221M17.2489 21.0221L11.5097 15.0984L17.2489 21.0221Z" fill="#C0C0C0" stroke="#C0C0C0" stroke-width="0.1875"/>
</svg>
