<svg width="35" height="35" viewBox="0 0 35 35" fill="none" xmlns="http://www.w3.org/2000/svg">
<rect width="35" height="35" fill="#1E1E1E"/>
<g id="MO_&#236;&#181;&#156;&#236;&#162;&#133;" clip-path="url(#clip0_14_701)">
<rect width="360" height="8972" transform="translate(-283 -6339)" fill="black"/>
<g id="Frame 137">
<g id="Frame 136">
<g id="Frame 155">
<g id="Frame 163">
<g id="Frame 156">
<g id="Frame 153">
<g id="Frame 138">
<rect width="308" height="887" transform="translate(-257 -24)" fill="#292929"/>
<g id="Frame 151">
<g id="Frame 152">
<mask id="path-1-inside-1_14_701" fill="white">
<path d="M-241 -8H35V63H-241V-8Z"/>
</mask>
<path d="M35 62H-241V64H35V62Z" fill="#707070" mask="url(#path-1-inside-1_14_701)"/>
<g id="ep:arrow-up">
<path id="Vector" d="M12.0931 20.8949L12.0931 20.8949C11.9733 20.7714 11.9063 20.6069 11.9063 20.4356C11.9063 20.2643 11.9733 20.0999 12.0931 19.9764C12.0931 19.9764 12.0931 19.9764 12.0931 19.9764L18.2621 13.6119C18.3252 13.5468 18.401 13.4951 18.4848 13.4597C18.5687 13.4244 18.6589 13.4063 18.75 13.4063C18.8411 13.4063 18.9313 13.4244 19.0152 13.4597C19.099 13.4951 19.1748 13.5468 19.2379 13.6119L25.4069 19.9764C25.5267 20.0999 25.5937 20.2643 25.5937 20.4356C25.5937 20.6069 25.5267 20.7714 25.4069 20.8949L25.4053 20.8965L25.4053 20.8965L25.3991 20.9026C25.3405 20.9629 25.2702 21.0109 25.1924 21.0438C25.1142 21.0768 25.0301 21.0938 24.9451 21.0938C24.8602 21.0938 24.776 21.0768 24.6979 21.0438C24.6197 21.0108 24.5491 20.9625 24.4904 20.9017L12.0931 20.8949ZM12.0931 20.8949L12.0947 20.8965L12.1009 20.9025C12.1595 20.9629 12.2298 21.0109 12.3076 21.0438C12.3858 21.0768 12.4699 21.0938 12.5549 21.0938C12.6398 21.0938 12.724 21.0768 12.8021 21.0438C12.8803 21.0108 12.9509 20.9625 13.0096 20.9017C13.0097 20.9017 13.0097 20.9017 13.0097 20.9016L18.7511 14.9779M12.0931 20.8949L18.7511 14.9779M18.7511 14.9779L24.4903 20.9016L18.7511 14.9779Z" fill="#C0C0C0" stroke="#C0C0C0" stroke-width="0.1875"/>
</g>
</g>
</g>
</g>
</g>
</g>
</g>
</g>
</g>
</g>
</g>
<defs>
<clipPath id="clip0_14_701">
<rect width="360" height="8972" fill="white" transform="translate(-283 -6339)"/>
</clipPath>
</defs>
</svg>
