<svg width="24" height="24" viewBox="0 0 24 24" fill="none" xmlns="http://www.w3.org/2000/svg">
<path d="M2 5.9C2 5.66131 2.09578 5.43239 2.26627 5.2636C2.43675 5.09482 2.66799 5 2.90909 5H21.0909C21.332 5 21.5632 5.09482 21.7337 5.2636C21.9042 5.43239 22 5.66131 22 5.9C22 6.13869 21.9042 6.36761 21.7337 6.5364C21.5632 6.70518 21.332 6.8 21.0909 6.8H2.90909C2.66799 6.8 2.43675 6.70518 2.26627 6.5364C2.09578 6.36761 2 6.13869 2 5.9ZM2 12.5C2 12.2613 2.09578 12.0324 2.26627 11.8636C2.43675 11.6948 2.66799 11.6 2.90909 11.6H21.0909C21.332 11.6 21.5632 11.6948 21.7337 11.8636C21.9042 12.0324 22 12.2613 22 12.5C22 12.7387 21.9042 12.9676 21.7337 13.1364C21.5632 13.3052 21.332 13.4 21.0909 13.4H2.90909C2.66799 13.4 2.43675 13.3052 2.26627 13.1364C2.09578 12.9676 2 12.7387 2 12.5ZM2 19.1C2 18.8613 2.09578 18.6324 2.26627 18.4636C2.43675 18.2948 2.66799 18.2 2.90909 18.2H21.0909C21.332 18.2 21.5632 18.2948 21.7337 18.4636C21.9042 18.6324 22 18.8613 22 19.1C22 19.3387 21.9042 19.5676 21.7337 19.7364C21.5632 19.9052 21.332 20 21.0909 20H2.90909C2.66799 20 2.43675 19.9052 2.26627 19.7364C2.09578 19.5676 2 19.3387 2 19.1Z" fill="#8D8D8D"/>
</svg>
