<svg width="48" height="48" viewBox="0 0 48 48" fill="none" xmlns="http://www.w3.org/2000/svg">
<g id="Group 101">
<circle id="Ellipse 17" cx="24" cy="24" r="24" fill="black" fill-opacity="0.3"/>
<g id="volume_off">
<mask id="mask0_587_33" style="mask-type:alpha" maskUnits="userSpaceOnUse" x="12" y="12" width="24" height="24">
<rect id="Bounding box" x="12" y="12" width="24" height="24" fill="#D9D9D9"/>
</mask>
<g mask="url(#mask0_587_33)">
<path id="volume_off_2" d="M32.5251 35.2L29.1751 31.825C28.7584 32.1083 28.3084 32.3541 27.8251 32.5625C27.3418 32.7708 26.8334 32.9333 26.3001 33.05V31.175C26.5668 31.0916 26.8376 31 27.1126 30.9C27.3876 30.8 27.6418 30.6583 27.8751 30.475L24.3001 26.825V33.525L18.4251 27.625H14.0501V20.35H17.9751L12.6001 14.85L13.8501 13.6L33.8001 33.9L32.5251 35.2ZM32.1001 29L30.8251 27.675C31.1584 27.125 31.4043 26.5375 31.5626 25.9125C31.7209 25.2875 31.8001 24.6416 31.8001 23.975C31.8001 22.2583 31.2918 20.725 30.2751 19.375C29.2584 18.025 27.9334 17.1583 26.3001 16.775V14.9C28.4334 15.3833 30.1834 16.4708 31.5501 18.1625C32.9168 19.8541 33.6001 21.7916 33.6001 23.975C33.6001 24.875 33.4709 25.75 33.2126 26.6C32.9543 27.45 32.5834 28.25 32.1001 29ZM28.7751 25.625L26.3001 23.1V19.725C27.1334 20.125 27.8084 20.7083 28.3251 21.475C28.8418 22.2416 29.1001 23.0833 29.1001 24C29.1001 24.2833 29.0709 24.5625 29.0126 24.8375C28.9543 25.1125 28.8751 25.375 28.7751 25.625ZM24.3001 21.05L21.0501 17.725L24.3001 14.475V21.05Z" fill="white"/>
</g>
</g>
</g>
</svg>
