<svg width="48" height="48" viewBox="0 0 48 48" fill="none" xmlns="http://www.w3.org/2000/svg">
<g id="Group 111">
<circle id="Ellipse 17" cx="24" cy="24" r="24" fill="black" fill-opacity="0.3"/>
<g id="volume_up">
<mask id="mask0_587_389" style="mask-type:alpha" maskUnits="userSpaceOnUse" x="12" y="12" width="24" height="25">
<rect id="Bounding box" x="12" y="12.0001" width="24" height="24" fill="#D9D9D9"/>
</mask>
<g mask="url(#mask0_587_389)">
<path id="volume_up_2" d="M26.4999 33.0501V31.1701C28.0999 30.6901 29.4165 29.7918 30.4499 28.4751C31.4832 27.1584 31.9999 25.6584 31.9999 23.9751C31.9999 22.2918 31.4874 20.7876 30.4624 19.4626C29.4374 18.1376 28.1165 17.2434 26.4999 16.7801V14.9001C28.637 15.3793 30.3838 16.4657 31.7401 18.1593C33.0966 19.8532 33.7749 21.7918 33.7749 23.9751C33.7749 26.1584 33.0966 28.097 31.7401 29.7908C30.3838 31.4845 28.637 32.5709 26.4999 33.0501ZM14.2249 27.6251V20.3501H18.5999L24.4999 14.4751V33.5251L18.5999 27.6251H14.2249ZM25.9999 28.4251V19.5501C26.9665 19.8834 27.754 20.4508 28.3624 21.2521C28.9707 22.0534 29.2749 22.97 29.2749 24.0018C29.2749 25.0173 28.9665 25.9293 28.3499 26.7376C27.7332 27.5459 26.9499 28.1084 25.9999 28.4251Z" fill="white"/>
</g>
</g>
</g>
</svg>
